<svg xmlns="http://www.w3.org/2000/svg" viewBox="0 0 24 24" fill="currentColor"><path d="M10.5 7V5.75A2.25 2.25 0 0 1 12.75 3.5h2.5A2.25 2.25 0 0 1 17.5 5.75V7h1.25A2.25 2.25 0 0 1 21 9.25v7a2.25 2.25 0 0 1-2.25 2.25H5.25A2.25 2.25 0 0 1 3 16.25v-7A2.25 2.25 0 0 1 5.25 7H6.5V5.75A2.25 2.25 0 0 1 8.75 3.5h2.5A2.25 2.25 0 0 1 13.5 5.75V7h-3zm1.25-1.25a.75.75 0 0 0-.75.75V7h3V6.5a.75.75 0 0 0-.75-.75h-1.5zM5.25 8.5A.75.75 0 0 0 4.5 9.25v7c0 .414.336.75.75.75h13.5a.75.75 0 0 0 .75-.75v-7a.75.75 0 0 0-.75-.75H5.25z"/></svg>
